<?xml version="1.0" standalone="no"?>
<!DOCTYPE svg PUBLIC "-//W3C//DTD SVG 20010904//EN"
 "http://www.w3.org/TR/2001/REC-SVG-20010904/DTD/svg10.dtd">
<svg version="1.0" xmlns="http://www.w3.org/2000/svg"
 width="1000.000000pt" height="1000.000000pt" viewBox="0 0 1000.000000 1000.000000"
 preserveAspectRatio="xMidYMid meet">
<metadata>
Created by potrace 1.14, written by Peter Selinger 2001-2017
</metadata>
<g transform="translate(0.000000,1000.000000) scale(0.100000,-0.100000)"
fill="#000000" stroke="none">
<path d="M1755 9993 c-164 -21 -382 -66 -440 -92 -11 -5 -58 -24 -105 -41 -98
-38 -207 -91 -267 -132 -23 -15 -44 -28 -48 -28 -3 0 -23 -12 -43 -27 -20 -15
-62 -45 -92 -67 -153 -111 -381 -359 -456 -496 -10 -19 -25 -41 -31 -48 -22
-23 -131 -256 -162 -344 -36 -102 -74 -254 -92 -368 -20 -126 -21 -6561 -1
-6695 63 -419 250 -792 548 -1089 201 -201 432 -350 694 -446 92 -34 242 -76
306 -85 21 -4 77 -13 124 -20 71 -12 619 -14 3335 -12 3523 3 3296 -1 3503 52
34 9 71 18 82 20 69 13 316 120 435 187 123 70 267 182 382 296 90 90 219 245
248 297 5 11 26 45 46 75 39 61 128 239 154 310 60 163 92 300 115 495 5 39 8
1510 8 3270 1 3462 3 3308 -53 3525 -43 171 -60 217 -141 385 -153 319 -383
579 -689 779 -194 126 -478 239 -685 272 -19 3 -73 12 -120 19 -71 12 -624 14
-3305 13 -1771 -1 -3233 -3 -3250 -5z"/>
</g>
</svg>
